  0
SECTION
  2
HEADER
  9
$ACADVER
  1
AC1009
  9
$FILLMODE
 70
1
  9
$EXTMIN
 10
-2.5071
 20
-0.1524
 30
0.0000
  9
$EXTMAX
 10
49.6824
 20
49.7581
 30
0.0000
  0
ENDSEC
  0
SECTION
  2
TABLES
  0
TABLE
  2
LTYPE
 70
1
  0
LTYPE
  2
CONTINUOUS
 70
64
  3
Solid line
 72
65
 73
0
 40
0
  0
ENDTAB
  0
TABLE
  2
LAYER
 70
255
  0
LAYER
  2
20
 70
64
 62
7
  6
CONTINUOUS
  0
LAYER
  2
31
 70
64
 62
253
  6
CONTINUOUS
  0
ENDTAB
  0
ENDSEC
  0
SECTION
  2
BLOCKS
  0
BLOCK
  8
0
  2
RECT
 70
64
 10
0.0000
 20
0.0000
 30
0.0000
  3
RECT
  0
SOLID
  8
0
 10
-0.5000
 20
-0.5000
 30
0.0000
 11
0.5000
 21
-0.5000
 31
0.0000
 12
-0.5000
 22
0.5000
 32
0.0000
 13
0.5000
 23
0.5000
 33
0.0000
  0
ENDBLK
  8
0
  0
BLOCK
  8
0
  2
PIE
 70
64
 10
0.0000
 20
0.0000
 30
0.0000
  3
PIE
  0
POLYLINE
  8
0
 66
1
 10
0.0000
 20
0.0000
 30
0.0000
 40
0.5000
 41
0.5000
 70
0
  0
VERTEX
  8
0
 10
0.0000
 20
-0.2500
 30
0.0000
 42
1.0000
  0
VERTEX
  8
0
 10
0.0000
 20
0.2500
 30
0.0000
 42
1.0000
  0
VERTEX
  8
0
 10
0.0000
 20
-0.2500
 30
0.0000
  0
SEQEND
  8
0
  0
ENDBLK
  8
0
  0
BLOCK
  8
0
  2
OCTAGONP
 70
64
 10
0.0000
 20
0.0000
 30
0.0000
  3
OCTAGONP
  0
POLYLINE
  8
0
 66
1
 10
0.0000
 20
0.0000
 30
0.0000
 40
0.5000
 41
0.5000
 70
0
  0
VERTEX
  8
0
 10
-0.2500
 20
-0.1036
 30
0.0000
  0
VERTEX
  8
0
 10
-0.2500
 20
0.1036
 30
0.0000
  0
VERTEX
  8
0
 10
-0.1036
 20
0.2500
 30
0.0000
  0
VERTEX
  8
0
 10
0.1036
 20
0.2500
 30
0.0000
  0
VERTEX
  8
0
 10
0.2500
 20
0.1036
 30
0.0000
  0
VERTEX
  8
0
 10
0.2500
 20
-0.1036
 30
0.0000
  0
VERTEX
  8
0
 10
0.1036
 20
-0.2500
 30
0.0000
  0
VERTEX
  8
0
 10
-0.1036
 20
-0.2500
 30
0.0000
  0
VERTEX
  8
0
 10
-0.2500
 20
-0.1036
 30
0.0000
  0
VERTEX
  8
0
 10
-0.2500
 20
0.1036
 30
0.0000
  0
SEQEND
  8
0
  0
ENDBLK
  8
0
  0
BLOCK
  8
0
  2
SQUAREP
 70
64
 10
0.0000
 20
0.0000
 30
0.0000
  3
SQUAREP
  0
SOLID
  8
0
 10
-0.5000
 20
-0.5000
 30
0.0000
 11
0.5000
 21
-0.5000
 31
0.0000
 12
-0.5000
 22
0.5000
 32
0.0000
 13
0.5000
 23
0.5000
 33
0.0000
  0
ENDBLK
  8
0
  0
BLOCK
  8
0
  2
ROUNDP
 70
64
 10
0.0000
 20
0.0000
 30
0.0000
  3
ROUNDP
  0
POLYLINE
  8
0
 66
1
 10
0.0000
 20
0.0000
 30
0.0000
 40
0.5000
 41
0.5000
 70
0
  0
VERTEX
  8
0
 10
0.0000
 20
-0.2500
 30
0.0000
 42
1.0000
  0
VERTEX
  8
0
 10
0.0000
 20
0.2500
 30
0.0000
 42
1.0000
  0
VERTEX
  8
0
 10
0.0000
 20
-0.2500
 30
0.0000
  0
SEQEND
  8
0
  0
ENDBLK
  8
0
  0
BLOCK
  8
0
  2
ANNULUSP
 70
64
 10
0.0000
 20
0.0000
 30
0.0000
  3
ANNULUSP
  0
POLYLINE
  8
0
 66
1
 10
0.0000
 20
0.0000
 30
0.0000
 40
0.5000
 41
0.5000
 70
0
  0
VERTEX
  8
0
 10
0.0000
 20
-0.2500
 30
0.0000
 42
1.0000
  0
VERTEX
  8
0
 10
0.0000
 20
0.2500
 30
0.0000
 42
1.0000
  0
VERTEX
  8
0
 10
0.0000
 20
-0.2500
 30
0.0000
  0
SEQEND
  8
0
  0
ENDBLK
  8
0
  0
BLOCK
  8
0
  2
THERMALP
 70
64
 10
0.0000
 20
0.0000
 30
0.0000
  3
THERMALP
  0
POLYLINE
  8
0
 66
1
 10
0.0000
 20
0.0000
 30
0.0000
 40
0.1000
 41
0.1000
 70
0
  0
VERTEX
  8
0
 10
-0.2379
 20
0.4500
 30
0.0000
  0
VERTEX
  8
0
 10
0.2379
 20
0.4500
 30
0.0000
  0
SEQEND
  8
0
  0
POLYLINE
  8
0
 66
1
 10
0.0000
 20
0.0000
 30
0.0000
 40
0.0500
 41
0.0500
 70
0
  0
VERTEX
  8
0
 10
0.2379
 20
0.4250
 30
0.0000
 42
1.0000
  0
VERTEX
  8
0
 10
0.2379
 20
0.4750
 30
0.0000
  0
SEQEND
  8
0
  0
POLYLINE
  8
0
 66
1
 10
0.0000
 20
0.0000
 30
0.0000
 40
0.0500
 41
0.0500
 70
0
  0
VERTEX
  8
0
 10
-0.2379
 20
0.4750
 30
0.0000
 42
1.0000
  0
VERTEX
  8
0
 10
-0.2379
 20
0.4250
 30
0.0000
  0
SEQEND
  8
0
  0
POLYLINE
  8
0
 66
1
 10
0.0000
 20
0.0000
 30
0.0000
 40
0.1000
 41
0.1000
 70
0
  0
VERTEX
  8
0
 10
0.4500
 20
0.2379
 30
0.0000
  0
VERTEX
  8
0
 10
0.4500
 20
-0.2379
 30
0.0000
  0
SEQEND
  8
0
  0
POLYLINE
  8
0
 66
1
 10
0.0000
 20
0.0000
 30
0.0000
 40
0.0500
 41
0.0500
 70
0
  0
VERTEX
  8
0
 10
0.4250
 20
-0.2379
 30
0.0000
 42
1.0000
  0
VERTEX
  8
0
 10
0.4750
 20
-0.2379
 30
0.0000
  0
SEQEND
  8
0
  0
POLYLINE
  8
0
 66
1
 10
0.0000
 20
0.0000
 30
0.0000
 40
0.0500
 41
0.0500
 70
0
  0
VERTEX
  8
0
 10
0.4750
 20
0.2379
 30
0.0000
 42
1.0000
  0
VERTEX
  8
0
 10
0.4250
 20
0.2379
 30
0.0000
  0
SEQEND
  8
0
  0
POLYLINE
  8
0
 66
1
 10
0.0000
 20
0.0000
 30
0.0000
 40
0.1000
 41
0.1000
 70
0
  0
VERTEX
  8
0
 10
0.2379
 20
-0.4500
 30
0.0000
  0
VERTEX
  8
0
 10
-0.2379
 20
-0.4500
 30
0.0000
  0
SEQEND
  8
0
  0
POLYLINE
  8
0
 66
1
 10
0.0000
 20
0.0000
 30
0.0000
 40
0.0500
 41
0.0500
 70
0
  0
VERTEX
  8
0
 10
-0.2379
 20
-0.4250
 30
0.0000
 42
1.0000
  0
VERTEX
  8
0
 10
-0.2379
 20
-0.4750
 30
0.0000
  0
SEQEND
  8
0
  0
POLYLINE
  8
0
 66
1
 10
0.0000
 20
0.0000
 30
0.0000
 40
0.0500
 41
0.0500
 70
0
  0
VERTEX
  8
0
 10
0.2379
 20
-0.4750
 30
0.0000
 42
1.0000
  0
VERTEX
  8
0
 10
0.2379
 20
-0.4250
 30
0.0000
  0
SEQEND
  8
0
  0
POLYLINE
  8
0
 66
1
 10
0.0000
 20
0.0000
 30
0.0000
 40
0.1000
 41
0.1000
 70
0
  0
VERTEX
  8
0
 10
-0.4500
 20
-0.2379
 30
0.0000
  0
VERTEX
  8
0
 10
-0.4500
 20
0.2379
 30
0.0000
  0
SEQEND
  8
0
  0
POLYLINE
  8
0
 66
1
 10
0.0000
 20
0.0000
 30
0.0000
 40
0.0500
 41
0.0500
 70
0
  0
VERTEX
  8
0
 10
-0.4250
 20
0.2379
 30
0.0000
 42
1.0000
  0
VERTEX
  8
0
 10
-0.4750
 20
0.2379
 30
0.0000
  0
SEQEND
  8
0
  0
POLYLINE
  8
0
 66
1
 10
0.0000
 20
0.0000
 30
0.0000
 40
0.0500
 41
0.0500
 70
0
  0
VERTEX
  8
0
 10
-0.4750
 20
-0.2379
 30
0.0000
 42
1.0000
  0
VERTEX
  8
0
 10
-0.4250
 20
-0.2379
 30
0.0000
  0
SEQEND
  8
0
  0
ENDBLK
  8
0
  0
BLOCK
  8
0
  2
OCTAGONV
 70
64
 10
0.0000
 20
0.0000
 30
0.0000
  3
OCTAGONV
  0
POLYLINE
  8
0
 66
1
 10
0.0000
 20
0.0000
 30
0.0000
 40
0.5000
 41
0.5000
 70
0
  0
VERTEX
  8
0
 10
-0.2500
 20
-0.1036
 30
0.0000
  0
VERTEX
  8
0
 10
-0.2500
 20
0.1036
 30
0.0000
  0
VERTEX
  8
0
 10
-0.1036
 20
0.2500
 30
0.0000
  0
VERTEX
  8
0
 10
0.1036
 20
0.2500
 30
0.0000
  0
VERTEX
  8
0
 10
0.2500
 20
0.1036
 30
0.0000
  0
VERTEX
  8
0
 10
0.2500
 20
-0.1036
 30
0.0000
  0
VERTEX
  8
0
 10
0.1036
 20
-0.2500
 30
0.0000
  0
VERTEX
  8
0
 10
-0.1036
 20
-0.2500
 30
0.0000
  0
VERTEX
  8
0
 10
-0.2500
 20
-0.1036
 30
0.0000
  0
VERTEX
  8
0
 10
-0.2500
 20
0.1036
 30
0.0000
  0
SEQEND
  8
0
  0
ENDBLK
  8
0
  0
BLOCK
  8
0
  2
SQUAREV
 70
64
 10
0.0000
 20
0.0000
 30
0.0000
  3
SQUAREV
  0
SOLID
  8
0
 10
-0.5000
 20
-0.5000
 30
0.0000
 11
0.5000
 21
-0.5000
 31
0.0000
 12
-0.5000
 22
0.5000
 32
0.0000
 13
0.5000
 23
0.5000
 33
0.0000
  0
ENDBLK
  8
0
  0
BLOCK
  8
0
  2
ROUNDV
 70
64
 10
0.0000
 20
0.0000
 30
0.0000
  3
ROUNDV
  0
POLYLINE
  8
0
 66
1
 10
0.0000
 20
0.0000
 30
0.0000
 40
0.5000
 41
0.5000
 70
0
  0
VERTEX
  8
0
 10
0.0000
 20
-0.2500
 30
0.0000
 42
1.0000
  0
VERTEX
  8
0
 10
0.0000
 20
0.2500
 30
0.0000
 42
1.0000
  0
VERTEX
  8
0
 10
0.0000
 20
-0.2500
 30
0.0000
  0
SEQEND
  8
0
  0
ENDBLK
  8
0
  0
BLOCK
  8
0
  2
ANNULUSV
 70
64
 10
0.0000
 20
0.0000
 30
0.0000
  3
ANNULUSV
  0
POLYLINE
  8
0
 66
1
 10
0.0000
 20
0.0000
 30
0.0000
 40
0.5000
 41
0.5000
 70
0
  0
VERTEX
  8
0
 10
0.0000
 20
-0.2500
 30
0.0000
 42
1.0000
  0
VERTEX
  8
0
 10
0.0000
 20
0.2500
 30
0.0000
 42
1.0000
  0
VERTEX
  8
0
 10
0.0000
 20
-0.2500
 30
0.0000
  0
SEQEND
  8
0
  0
ENDBLK
  8
0
  0
BLOCK
  8
0
  2
THERMALV
 70
64
 10
0.0000
 20
0.0000
 30
0.0000
  3
THERMALV
  0
POLYLINE
  8
0
 66
1
 10
0.0000
 20
0.0000
 30
0.0000
 40
0.1000
 41
0.1000
 70
0
  0
VERTEX
  8
0
 10
-0.2379
 20
0.4500
 30
0.0000
  0
VERTEX
  8
0
 10
0.2379
 20
0.4500
 30
0.0000
  0
SEQEND
  8
0
  0
POLYLINE
  8
0
 66
1
 10
0.0000
 20
0.0000
 30
0.0000
 40
0.0500
 41
0.0500
 70
0
  0
VERTEX
  8
0
 10
0.2379
 20
0.4250
 30
0.0000
 42
1.0000
  0
VERTEX
  8
0
 10
0.2379
 20
0.4750
 30
0.0000
  0
SEQEND
  8
0
  0
POLYLINE
  8
0
 66
1
 10
0.0000
 20
0.0000
 30
0.0000
 40
0.0500
 41
0.0500
 70
0
  0
VERTEX
  8
0
 10
-0.2379
 20
0.4750
 30
0.0000
 42
1.0000
  0
VERTEX
  8
0
 10
-0.2379
 20
0.4250
 30
0.0000
  0
SEQEND
  8
0
  0
POLYLINE
  8
0
 66
1
 10
0.0000
 20
0.0000
 30
0.0000
 40
0.1000
 41
0.1000
 70
0
  0
VERTEX
  8
0
 10
0.4500
 20
0.2379
 30
0.0000
  0
VERTEX
  8
0
 10
0.4500
 20
-0.2379
 30
0.0000
  0
SEQEND
  8
0
  0
POLYLINE
  8
0
 66
1
 10
0.0000
 20
0.0000
 30
0.0000
 40
0.0500
 41
0.0500
 70
0
  0
VERTEX
  8
0
 10
0.4250
 20
-0.2379
 30
0.0000
 42
1.0000
  0
VERTEX
  8
0
 10
0.4750
 20
-0.2379
 30
0.0000
  0
SEQEND
  8
0
  0
POLYLINE
  8
0
 66
1
 10
0.0000
 20
0.0000
 30
0.0000
 40
0.0500
 41
0.0500
 70
0
  0
VERTEX
  8
0
 10
0.4750
 20
0.2379
 30
0.0000
 42
1.0000
  0
VERTEX
  8
0
 10
0.4250
 20
0.2379
 30
0.0000
  0
SEQEND
  8
0
  0
POLYLINE
  8
0
 66
1
 10
0.0000
 20
0.0000
 30
0.0000
 40
0.1000
 41
0.1000
 70
0
  0
VERTEX
  8
0
 10
0.2379
 20
-0.4500
 30
0.0000
  0
VERTEX
  8
0
 10
-0.2379
 20
-0.4500
 30
0.0000
  0
SEQEND
  8
0
  0
POLYLINE
  8
0
 66
1
 10
0.0000
 20
0.0000
 30
0.0000
 40
0.0500
 41
0.0500
 70
0
  0
VERTEX
  8
0
 10
-0.2379
 20
-0.4250
 30
0.0000
 42
1.0000
  0
VERTEX
  8
0
 10
-0.2379
 20
-0.4750
 30
0.0000
  0
SEQEND
  8
0
  0
POLYLINE
  8
0
 66
1
 10
0.0000
 20
0.0000
 30
0.0000
 40
0.0500
 41
0.0500
 70
0
  0
VERTEX
  8
0
 10
0.2379
 20
-0.4750
 30
0.0000
 42
1.0000
  0
VERTEX
  8
0
 10
0.2379
 20
-0.4250
 30
0.0000
  0
SEQEND
  8
0
  0
POLYLINE
  8
0
 66
1
 10
0.0000
 20
0.0000
 30
0.0000
 40
0.1000
 41
0.1000
 70
0
  0
VERTEX
  8
0
 10
-0.4500
 20
-0.2379
 30
0.0000
  0
VERTEX
  8
0
 10
-0.4500
 20
0.2379
 30
0.0000
  0
SEQEND
  8
0
  0
POLYLINE
  8
0
 66
1
 10
0.0000
 20
0.0000
 30
0.0000
 40
0.0500
 41
0.0500
 70
0
  0
VERTEX
  8
0
 10
-0.4250
 20
0.2379
 30
0.0000
 42
1.0000
  0
VERTEX
  8
0
 10
-0.4750
 20
0.2379
 30
0.0000
  0
SEQEND
  8
0
  0
POLYLINE
  8
0
 66
1
 10
0.0000
 20
0.0000
 30
0.0000
 40
0.0500
 41
0.0500
 70
0
  0
VERTEX
  8
0
 10
-0.4750
 20
-0.2379
 30
0.0000
 42
1.0000
  0
VERTEX
  8
0
 10
-0.4250
 20
-0.2379
 30
0.0000
  0
SEQEND
  8
0
  0
ENDBLK
  8
0
  0
BLOCK
  8
0
  2
RECT162560X40640R100
 70
64
 10
0.0000
 20
0.0000
 30
0.0000
  3
RECT162560X40640R100
  0
POLYLINE
  8
0
 66
1
 10
0.0000
 20
0.0000
 30
0.0000
 40
0.1270
 41
0.1270
 70
1
  0
VERTEX
  8
0
 10
0.4445
 20
0.0000
 30
0.0000
  0
VERTEX
  8
0
 10
0.4445
 20
0.0000
 30
0.0000
 42
0.4142
  0
VERTEX
  8
0
 10
0.3810
 20
0.0635
 30
0.0000
  0
VERTEX
  8
0
 10
-0.3810
 20
0.0635
 30
0.0000
 42
0.4142
  0
VERTEX
  8
0
 10
-0.4445
 20
0.0000
 30
0.0000
  0
VERTEX
  8
0
 10
-0.4445
 20
0.0000
 30
0.0000
 42
0.4142
  0
VERTEX
  8
0
 10
-0.3810
 20
-0.0635
 30
0.0000
  0
VERTEX
  8
0
 10
0.3810
 20
-0.0635
 30
0.0000
 42
0.4142
  0
SEQEND
  8
0
  0
SOLID
  8
0
 10
-0.4064
 20
-0.0254
 30
0.0000
 11
0.4064
 21
-0.0254
 31
0.0000
 12
-0.4064
 22
0.0254
 32
0.0000
 13
0.4064
 23
0.0254
 33
0.0000
  0
ENDBLK
  8
0
  0
ENDSEC
  0
SECTION
  2
ENTITIES
  0
LINE
  8
20
 10
0.0000
 20
0.0000
 30
0.0000
 11
49.6763
 21
-0.0794
 31
0.0000
  0
LINE
  8
20
 10
49.6763
 20
-0.0794
 30
0.0000
 11
49.5969
 21
49.6788
 31
0.0000
  0
LINE
  8
20
 10
49.5969
 20
49.6788
 30
0.0000
 11
-0.0794
 21
49.7581
 31
0.0000
  0
LINE
  8
20
 10
-0.0794
 20
49.7581
 30
0.0000
 11
0.0000
 21
0.0000
 31
0.0000
  0
CIRCLE
  8
20
 10
2.5400
 20
46.9900
 30
0.0000
 40
1.6000
  0
CIRCLE
  8
20
 10
46.9900
 20
46.9900
 30
0.0000
 40
1.6000
  0
CIRCLE
  8
20
 10
46.9900
 20
2.5400
 30
0.0000
 40
1.6000
  0
CIRCLE
  8
20
 10
2.5400
 20
2.5400
 30
0.0000
 40
1.6000
  0
INSERT
  8
31
  2
RECT
 10
22.6369
 20
26.7494
 30
0.0000
 41
0.7000
 42
0.9000
 43
1.0000
 50
180.0000
  0
INSERT
  8
31
  2
RECT
 10
21.3369
 20
26.7494
 30
0.0000
 41
0.7000
 42
0.9000
 43
1.0000
 50
180.0000
  0
INSERT
  8
31
  2
RECT
 10
24.5500
 20
9.6044
 30
0.0000
 41
1.1000
 42
1.0000
 43
1.0000
 50
0.0000
  0
INSERT
  8
31
  2
RECT
 10
26.2500
 20
9.6044
 30
0.0000
 41
1.1000
 42
1.0000
 43
1.0000
 50
0.0000
  0
INSERT
  8
31
  2
RECT
 10
20.7400
 20
9.6044
 30
0.0000
 41
1.1000
 42
1.0000
 43
1.0000
 50
0.0000
  0
INSERT
  8
31
  2
RECT
 10
22.4400
 20
9.6044
 30
0.0000
 41
1.1000
 42
1.0000
 43
1.0000
 50
0.0000
  0
INSERT
  8
31
  2
RECT
 10
15.8900
 20
21.0344
 30
0.0000
 41
0.7000
 42
0.9000
 43
1.0000
 50
180.0000
  0
INSERT
  8
31
  2
RECT
 10
14.5900
 20
21.0344
 30
0.0000
 41
0.7000
 42
0.9000
 43
1.0000
 50
180.0000
  0
INSERT
  8
31
  2
RECT
 10
26.5675
 20
27.3844
 30
0.0000
 41
1.1000
 42
1.0000
 43
1.0000
 50
180.0000
  0
INSERT
  8
31
  2
RECT
 10
24.8675
 20
27.3844
 30
0.0000
 41
1.1000
 42
1.0000
 43
1.0000
 50
180.0000
  0
INSERT
  8
31
  2
RECT
 10
28.3219
 20
28.0194
 30
0.0000
 41
0.7000
 42
0.9000
 43
1.0000
 50
0.0000
  0
INSERT
  8
31
  2
RECT
 10
29.6219
 20
28.0194
 30
0.0000
 41
0.7000
 42
0.9000
 43
1.0000
 50
0.0000
  0
INSERT
  8
31
  2
RECT
 10
22.6219
 20
16.4456
 30
0.0000
 41
0.7000
 42
0.9000
 43
1.0000
 50
270.0000
  0
INSERT
  8
31
  2
RECT
 10
22.6219
 20
15.1456
 30
0.0000
 41
0.7000
 42
0.9000
 43
1.0000
 50
270.0000
  0
INSERT
  8
31
  2
RECT
 10
22.1456
 20
31.3681
 30
0.0000
 41
0.7000
 42
0.9000
 43
1.0000
 50
270.0000
  0
INSERT
  8
31
  2
RECT
 10
22.1456
 20
30.0681
 30
0.0000
 41
0.7000
 42
0.9000
 43
1.0000
 50
270.0000
  0
INSERT
  8
31
  2
RECT
 10
28.3219
 20
29.8450
 30
0.0000
 41
0.7000
 42
0.9000
 43
1.0000
 50
0.0000
  0
INSERT
  8
31
  2
RECT
 10
29.6219
 20
29.8450
 30
0.0000
 41
0.7000
 42
0.9000
 43
1.0000
 50
0.0000
  0
INSERT
  8
31
  2
RECT
 10
37.2269
 20
20.4144
 30
0.0000
 41
0.7000
 42
0.9000
 43
1.0000
 50
270.0000
  0
INSERT
  8
31
  2
RECT
 10
37.2269
 20
19.1144
 30
0.0000
 41
0.7000
 42
0.9000
 43
1.0000
 50
270.0000
  0
INSERT
  8
31
  2
RECT
 10
29.5275
 20
23.4800
 30
0.0000
 41
0.7000
 42
0.9000
 43
1.0000
 50
90.0000
  0
INSERT
  8
31
  2
RECT
 10
29.5275
 20
24.7800
 30
0.0000
 41
0.7000
 42
0.9000
 43
1.0000
 50
90.0000
  0
INSERT
  8
31
  2
RECT
 10
34.2900
 20
24.7500
 30
0.0000
 41
0.7000
 42
0.9000
 43
1.0000
 50
90.0000
  0
INSERT
  8
31
  2
RECT
 10
34.2900
 20
26.0500
 30
0.0000
 41
0.7000
 42
0.9000
 43
1.0000
 50
90.0000
  0
INSERT
  8
31
  2
RECT
 10
35.5600
 20
17.3600
 30
0.0000
 41
1.1000
 42
1.0000
 43
1.0000
 50
270.0000
  0
INSERT
  8
31
  2
RECT
 10
35.5600
 20
15.6600
 30
0.0000
 41
1.1000
 42
1.0000
 43
1.0000
 50
270.0000
  0
INSERT
  8
31
  2
RECT
 10
34.2900
 20
31.6200
 30
0.0000
 41
1.6000
 42
1.4000
 43
1.0000
 50
0.0000
  0
INSERT
  8
31
  2
RECT
 10
34.2900
 20
34.4200
 30
0.0000
 41
1.6000
 42
1.4000
 43
1.0000
 50
0.0000
  0
INSERT
  8
31
  2
RECT
 10
13.9700
 20
30.3500
 30
0.0000
 41
1.6000
 42
1.4000
 43
1.0000
 50
0.0000
  0
INSERT
  8
31
  2
RECT
 10
13.9700
 20
33.1500
 30
0.0000
 41
1.6000
 42
1.4000
 43
1.0000
 50
0.0000
  0
INSERT
  8
31
  2
RECT
 10
42.3300
 20
17.7800
 30
0.0000
 41
1.1000
 42
1.0000
 43
1.0000
 50
0.0000
  0
INSERT
  8
31
  2
RECT
 10
44.0300
 20
17.7800
 30
0.0000
 41
1.1000
 42
1.0000
 43
1.0000
 50
0.0000
  0
INSERT
  8
31
  2
RECT
 10
33.3375
 20
13.5500
 30
0.0000
 41
1.1000
 42
1.0000
 43
1.0000
 50
270.0000
  0
INSERT
  8
31
  2
RECT
 10
33.3375
 20
11.8500
 30
0.0000
 41
1.1000
 42
1.0000
 43
1.0000
 50
270.0000
  0
INSERT
  8
31
  2
RECT
 10
18.6950
 20
35.5600
 30
0.0000
 41
0.9100
 42
1.2200
 43
1.0000
 50
180.0000
  0
INSERT
  8
31
  2
RECT
 10
21.9450
 20
35.5600
 30
0.0000
 41
0.9100
 42
1.2200
 43
1.0000
 50
0.0000
  0
INSERT
  8
31
  2
RECT
 10
11.5469
 20
29.8450
 30
0.0000
 41
0.9100
 42
1.2200
 43
1.0000
 50
0.0000
  0
INSERT
  8
31
  2
RECT
 10
8.2969
 20
29.8450
 30
0.0000
 41
0.9100
 42
1.2200
 43
1.0000
 50
180.0000
  0
INSERT
  8
31
  2
RECT
 10
39.6081
 20
19.0081
 30
0.0000
 41
0.9100
 42
1.2200
 43
1.0000
 50
90.0000
  0
INSERT
  8
31
  2
RECT
 10
39.6081
 20
15.7581
 30
0.0000
 41
0.9100
 42
1.2200
 43
1.0000
 50
270.0000
  0
INSERT
  8
31
  2
RECT
 10
13.8400
 20
26.6700
 30
0.0000
 41
1.0000
 42
1.8000
 43
1.0000
 50
0.0000
  0
INSERT
  8
31
  2
RECT
 10
16.6400
 20
26.6700
 30
0.0000
 41
1.0000
 42
1.8000
 43
1.0000
 50
0.0000
  0
INSERT
  8
31
  2
RECT
 10
9.5738
 20
34.5600
 30
0.0000
 41
1.0000
 42
4.6000
 43
1.0000
 50
90.0000
  0
INSERT
  8
31
  2
RECT
 10
9.5738
 20
36.5600
 30
0.0000
 41
1.0000
 42
4.6000
 43
1.0000
 50
90.0000
  0
INSERT
  8
31
  2
RECT
 10
4.3738
 20
32.1600
 30
0.0000
 41
3.4000
 42
1.6000
 43
1.0000
 50
180.0000
  0
INSERT
  8
31
  2
RECT
 10
4.3738
 20
38.9600
 30
0.0000
 41
3.4000
 42
1.6000
 43
1.0000
 50
180.0000
  0
INSERT
  8
31
  2
RECT
 10
43.4975
 20
12.0819
 30
0.0000
 41
4.5000
 42
1.8000
 43
1.0000
 50
180.0000
  0
INSERT
  8
31
  2
RECT
 10
43.4975
 20
15.3819
 30
0.0000
 41
4.5000
 42
1.8000
 43
1.0000
 50
180.0000
  0
INSERT
  8
31
  2
RECT
 10
20.3994
 20
16.6456
 30
0.0000
 41
1.0000
 42
1.1000
 43
1.0000
 50
270.0000
  0
INSERT
  8
31
  2
RECT
 10
20.3994
 20
14.9456
 30
0.0000
 41
1.0000
 42
1.1000
 43
1.0000
 50
270.0000
  0
INSERT
  8
31
  2
RECT
 10
14.3900
 20
22.8600
 30
0.0000
 41
1.0000
 42
1.1000
 43
1.0000
 50
0.0000
  0
INSERT
  8
31
  2
RECT
 10
16.0900
 20
22.8600
 30
0.0000
 41
1.0000
 42
1.1000
 43
1.0000
 50
0.0000
  0
INSERT
  8
31
  2
RECT
 10
14.3900
 20
24.2888
 30
0.0000
 41
1.0000
 42
1.1000
 43
1.0000
 50
0.0000
  0
INSERT
  8
31
  2
RECT
 10
16.0900
 20
24.2888
 30
0.0000
 41
1.0000
 42
1.1000
 43
1.0000
 50
0.0000
  0
INSERT
  8
31
  2
RECT
 10
38.1000
 20
26.2500
 30
0.0000
 41
1.1000
 42
1.0000
 43
1.0000
 50
270.0000
  0
INSERT
  8
31
  2
RECT
 10
38.1000
 20
24.5500
 30
0.0000
 41
1.1000
 42
1.0000
 43
1.0000
 50
270.0000
  0
INSERT
  8
31
  2
RECT
 10
19.6850
 20
27.7250
 30
0.0000
 41
1.0000
 42
1.1000
 43
1.0000
 50
90.0000
  0
INSERT
  8
31
  2
RECT
 10
19.6850
 20
29.4250
 30
0.0000
 41
1.0000
 42
1.1000
 43
1.0000
 50
90.0000
  0
INSERT
  8
31
  2
RECT
 10
28.8925
 20
14.9788
 30
0.0000
 41
1.0000
 42
1.1000
 43
1.0000
 50
270.0000
  0
INSERT
  8
31
  2
RECT
 10
28.8925
 20
13.2788
 30
0.0000
 41
1.0000
 42
1.1000
 43
1.0000
 50
270.0000
  0
INSERT
  8
31
  2
RECT
 10
30.4006
 20
14.9788
 30
0.0000
 41
1.0000
 42
1.1000
 43
1.0000
 50
270.0000
  0
INSERT
  8
31
  2
RECT
 10
30.4006
 20
13.2788
 30
0.0000
 41
1.0000
 42
1.1000
 43
1.0000
 50
270.0000
  0
INSERT
  8
31
  2
RECT
 10
38.3150
 20
13.8113
 30
0.0000
 41
1.0000
 42
1.1000
 43
1.0000
 50
180.0000
  0
INSERT
  8
31
  2
RECT
 10
36.6150
 20
13.8113
 30
0.0000
 41
1.0000
 42
1.1000
 43
1.0000
 50
180.0000
  0
INSERT
  8
31
  2
RECT
 10
20.7300
 20
24.0900
 30
0.0000
 41
0.8000
 42
0.3000
 43
1.0000
 50
180.0000
  0
INSERT
  8
31
  2
RECT
 10
20.7300
 20
23.5900
 30
0.0000
 41
0.8000
 42
0.3000
 43
1.0000
 50
180.0000
  0
INSERT
  8
31
  2
RECT
 10
20.7300
 20
23.0900
 30
0.0000
 41
0.8000
 42
0.3000
 43
1.0000
 50
180.0000
  0
INSERT
  8
31
  2
RECT
 10
20.7300
 20
22.5900
 30
0.0000
 41
0.8000
 42
0.3000
 43
1.0000
 50
180.0000
  0
INSERT
  8
31
  2
RECT
 10
20.7300
 20
22.0900
 30
0.0000
 41
0.8000
 42
0.3000
 43
1.0000
 50
180.0000
  0
INSERT
  8
31
  2
RECT
 10
20.7300
 20
21.5900
 30
0.0000
 41
0.8000
 42
0.3000
 43
1.0000
 50
180.0000
  0
INSERT
  8
31
  2
RECT
 10
20.7300
 20
21.0900
 30
0.0000
 41
0.8000
 42
0.3000
 43
1.0000
 50
0.0000
  0
INSERT
  8
31
  2
RECT
 10
20.7300
 20
20.5900
 30
0.0000
 41
0.8000
 42
0.3000
 43
1.0000
 50
0.0000
  0
INSERT
  8
31
  2
RECT
 10
20.7300
 20
20.0900
 30
0.0000
 41
0.8000
 42
0.3000
 43
1.0000
 50
0.0000
  0
INSERT
  8
31
  2
RECT
 10
20.7300
 20
19.5900
 30
0.0000
 41
0.8000
 42
0.3000
 43
1.0000
 50
0.0000
  0
INSERT
  8
31
  2
RECT
 10
20.7300
 20
19.0900
 30
0.0000
 41
0.8000
 42
0.3000
 43
1.0000
 50
0.0000
  0
INSERT
  8
31
  2
RECT
 10
21.6300
 20
18.1900
 30
0.0000
 41
0.8000
 42
0.3000
 43
1.0000
 50
270.0000
  0
INSERT
  8
31
  2
RECT
 10
22.1300
 20
18.1900
 30
0.0000
 41
0.8000
 42
0.3000
 43
1.0000
 50
270.0000
  0
INSERT
  8
31
  2
RECT
 10
22.6300
 20
18.1900
 30
0.0000
 41
0.8000
 42
0.3000
 43
1.0000
 50
270.0000
  0
INSERT
  8
31
  2
RECT
 10
23.1300
 20
18.1900
 30
0.0000
 41
0.8000
 42
0.3000
 43
1.0000
 50
270.0000
  0
INSERT
  8
31
  2
RECT
 10
23.6300
 20
18.1900
 30
0.0000
 41
0.8000
 42
0.3000
 43
1.0000
 50
270.0000
  0
INSERT
  8
31
  2
RECT
 10
24.1300
 20
18.1900
 30
0.0000
 41
0.8000
 42
0.3000
 43
1.0000
 50
270.0000
  0
INSERT
  8
31
  2
RECT
 10
24.6300
 20
18.1900
 30
0.0000
 41
0.8000
 42
0.3000
 43
1.0000
 50
90.0000
  0
INSERT
  8
31
  2
RECT
 10
25.1300
 20
18.1900
 30
0.0000
 41
0.8000
 42
0.3000
 43
1.0000
 50
90.0000
  0
INSERT
  8
31
  2
RECT
 10
25.6300
 20
18.1900
 30
0.0000
 41
0.8000
 42
0.3000
 43
1.0000
 50
90.0000
  0
INSERT
  8
31
  2
RECT
 10
26.1300
 20
18.1900
 30
0.0000
 41
0.8000
 42
0.3000
 43
1.0000
 50
90.0000
  0
INSERT
  8
31
  2
RECT
 10
26.6300
 20
18.1900
 30
0.0000
 41
0.8000
 42
0.3000
 43
1.0000
 50
90.0000
  0
INSERT
  8
31
  2
RECT
 10
27.5300
 20
19.0900
 30
0.0000
 41
0.8000
 42
0.3000
 43
1.0000
 50
0.0000
  0
INSERT
  8
31
  2
RECT
 10
27.5300
 20
19.5900
 30
0.0000
 41
0.8000
 42
0.3000
 43
1.0000
 50
0.0000
  0
INSERT
  8
31
  2
RECT
 10
27.5300
 20
20.0900
 30
0.0000
 41
0.8000
 42
0.3000
 43
1.0000
 50
0.0000
  0
INSERT
  8
31
  2
RECT
 10
27.5300
 20
20.5900
 30
0.0000
 41
0.8000
 42
0.3000
 43
1.0000
 50
0.0000
  0
INSERT
  8
31
  2
RECT
 10
27.5300
 20
21.0900
 30
0.0000
 41
0.8000
 42
0.3000
 43
1.0000
 50
0.0000
  0
INSERT
  8
31
  2
RECT
 10
27.5300
 20
21.5900
 30
0.0000
 41
0.8000
 42
0.3000
 43
1.0000
 50
0.0000
  0
INSERT
  8
31
  2
RECT
 10
27.5300
 20
22.0900
 30
0.0000
 41
0.8000
 42
0.3000
 43
1.0000
 50
180.0000
  0
INSERT
  8
31
  2
RECT
 10
27.5300
 20
22.5900
 30
0.0000
 41
0.8000
 42
0.3000
 43
1.0000
 50
180.0000
  0
INSERT
  8
31
  2
RECT
 10
27.5300
 20
23.0900
 30
0.0000
 41
0.8000
 42
0.3000
 43
1.0000
 50
180.0000
  0
INSERT
  8
31
  2
RECT
 10
27.5300
 20
23.5900
 30
0.0000
 41
0.8000
 42
0.3000
 43
1.0000
 50
180.0000
  0
INSERT
  8
31
  2
RECT
 10
27.5300
 20
24.0900
 30
0.0000
 41
0.8000
 42
0.3000
 43
1.0000
 50
180.0000
  0
INSERT
  8
31
  2
RECT
 10
26.6300
 20
24.9900
 30
0.0000
 41
0.8000
 42
0.3000
 43
1.0000
 50
90.0000
  0
INSERT
  8
31
  2
RECT
 10
26.1300
 20
24.9900
 30
0.0000
 41
0.8000
 42
0.3000
 43
1.0000
 50
90.0000
  0
INSERT
  8
31
  2
RECT
 10
25.6300
 20
24.9900
 30
0.0000
 41
0.8000
 42
0.3000
 43
1.0000
 50
90.0000
  0
INSERT
  8
31
  2
RECT
 10
25.1300
 20
24.9900
 30
0.0000
 41
0.8000
 42
0.3000
 43
1.0000
 50
90.0000
  0
INSERT
  8
31
  2
RECT
 10
24.6300
 20
24.9900
 30
0.0000
 41
0.8000
 42
0.3000
 43
1.0000
 50
90.0000
  0
INSERT
  8
31
  2
RECT
 10
24.1300
 20
24.9900
 30
0.0000
 41
0.8000
 42
0.3000
 43
1.0000
 50
90.0000
  0
INSERT
  8
31
  2
RECT
 10
23.6300
 20
24.9900
 30
0.0000
 41
0.8000
 42
0.3000
 43
1.0000
 50
270.0000
  0
INSERT
  8
31
  2
RECT
 10
23.1300
 20
24.9900
 30
0.0000
 41
0.8000
 42
0.3000
 43
1.0000
 50
270.0000
  0
INSERT
  8
31
  2
RECT
 10
22.6300
 20
24.9900
 30
0.0000
 41
0.8000
 42
0.3000
 43
1.0000
 50
270.0000
  0
INSERT
  8
31
  2
RECT
 10
22.1300
 20
24.9900
 30
0.0000
 41
0.8000
 42
0.3000
 43
1.0000
 50
270.0000
  0
INSERT
  8
31
  2
RECT
 10
21.6300
 20
24.9900
 30
0.0000
 41
0.8000
 42
0.3000
 43
1.0000
 50
270.0000
  0
INSERT
  8
31
  2
RECT
 10
26.3500
 20
31.7801
 30
0.0000
 41
0.5500
 42
1.2000
 43
1.0000
 50
180.0000
  0
INSERT
  8
31
  2
RECT
 10
25.4000
 20
31.7801
 30
0.0000
 41
0.5500
 42
1.2000
 43
1.0000
 50
180.0000
  0
INSERT
  8
31
  2
RECT
 10
24.4500
 20
31.7801
 30
0.0000
 41
0.5500
 42
1.2000
 43
1.0000
 50
180.0000
  0
INSERT
  8
31
  2
RECT
 10
24.4500
 20
29.1799
 30
0.0000
 41
0.5500
 42
1.2000
 43
1.0000
 50
180.0000
  0
INSERT
  8
31
  2
RECT
 10
26.3500
 20
29.1799
 30
0.0000
 41
0.5500
 42
1.2000
 43
1.0000
 50
180.0000
  0
INSERT
  8
31
  2
RECT
 10
32.4485
 20
19.7231
 30
0.0000
 41
0.4826
 42
0.4826
 43
1.0000
 50
90.0000
  0
INSERT
  8
31
  2
RECT
 10
32.4485
 20
20.9931
 30
0.0000
 41
0.4826
 42
0.4826
 43
1.0000
 50
90.0000
  0
INSERT
  8
31
  2
RECT
 10
33.6550
 20
19.7358
 30
0.0000
 41
0.4826
 42
0.4826
 43
1.0000
 50
90.0000
  0
INSERT
  8
31
  2
RECT
 10
33.6550
 20
20.9550
 30
0.0000
 41
0.4826
 42
0.4826
 43
1.0000
 50
90.0000
  0
INSERT
  8
31
  2
RECT162560X40640R100
 10
31.7633
 20
18.2538
 30
0.0000
 41
1.0000
 42
1.0000
 43
1.0000
 50
270.0000
  0
INSERT
  8
31
  2
RECT162560X40640R100
 10
32.2704
 20
18.2538
 30
0.0000
 41
1.0000
 42
1.0000
 43
1.0000
 50
270.0000
  0
INSERT
  8
31
  2
RECT162560X40640R100
 10
32.7725
 20
18.2538
 30
0.0000
 41
1.0000
 42
1.0000
 43
1.0000
 50
270.0000
  0
INSERT
  8
31
  2
RECT162560X40640R100
 10
33.3075
 20
18.2538
 30
0.0000
 41
1.0000
 42
1.0000
 43
1.0000
 50
270.0000
  0
INSERT
  8
31
  2
RECT162560X40640R100
 10
33.8121
 20
18.2538
 30
0.0000
 41
1.0000
 42
1.0000
 43
1.0000
 50
270.0000
  0
INSERT
  8
31
  2
RECT162560X40640R100
 10
34.3167
 20
18.2538
 30
0.0000
 41
1.0000
 42
1.0000
 43
1.0000
 50
270.0000
  0
INSERT
  8
31
  2
RECT162560X40640R100
 10
35.1416
 20
19.0533
 30
0.0000
 41
1.0000
 42
1.0000
 43
1.0000
 50
180.0000
  0
INSERT
  8
31
  2
RECT162560X40640R100
 10
35.1416
 20
19.5579
 30
0.0000
 41
1.0000
 42
1.0000
 43
1.0000
 50
180.0000
  0
INSERT
  8
31
  2
RECT162560X40640R100
 10
35.1416
 20
20.0625
 30
0.0000
 41
1.0000
 42
1.0000
 43
1.0000
 50
180.0000
  0
INSERT
  8
31
  2
RECT162560X40640R100
 10
35.1416
 20
20.5975
 30
0.0000
 41
1.0000
 42
1.0000
 43
1.0000
 50
180.0000
  0
INSERT
  8
31
  2
RECT162560X40640R100
 10
35.1416
 20
21.0996
 30
0.0000
 41
1.0000
 42
1.0000
 43
1.0000
 50
180.0000
  0
INSERT
  8
31
  2
RECT162560X40640R100
 10
35.1416
 20
21.6067
 30
0.0000
 41
1.0000
 42
1.0000
 43
1.0000
 50
180.0000
  0
INSERT
  8
31
  2
RECT162560X40640R100
 10
34.3167
 20
22.4062
 30
0.0000
 41
1.0000
 42
1.0000
 43
1.0000
 50
270.0000
  0
INSERT
  8
31
  2
RECT162560X40640R100
 10
33.8121
 20
22.4062
 30
0.0000
 41
1.0000
 42
1.0000
 43
1.0000
 50
270.0000
  0
INSERT
  8
31
  2
RECT162560X40640R100
 10
33.3075
 20
22.4062
 30
0.0000
 41
1.0000
 42
1.0000
 43
1.0000
 50
270.0000
  0
INSERT
  8
31
  2
RECT162560X40640R100
 10
32.7725
 20
22.4062
 30
0.0000
 41
1.0000
 42
1.0000
 43
1.0000
 50
270.0000
  0
INSERT
  8
31
  2
RECT162560X40640R100
 10
32.2704
 20
22.4062
 30
0.0000
 41
1.0000
 42
1.0000
 43
1.0000
 50
270.0000
  0
INSERT
  8
31
  2
RECT162560X40640R100
 10
31.7633
 20
22.4062
 30
0.0000
 41
1.0000
 42
1.0000
 43
1.0000
 50
270.0000
  0
INSERT
  8
31
  2
RECT162560X40640R100
 10
30.9384
 20
21.6067
 30
0.0000
 41
1.0000
 42
1.0000
 43
1.0000
 50
180.0000
  0
INSERT
  8
31
  2
RECT162560X40640R100
 10
30.9384
 20
21.0996
 30
0.0000
 41
1.0000
 42
1.0000
 43
1.0000
 50
180.0000
  0
INSERT
  8
31
  2
RECT162560X40640R100
 10
30.9384
 20
20.5975
 30
0.0000
 41
1.0000
 42
1.0000
 43
1.0000
 50
180.0000
  0
INSERT
  8
31
  2
RECT162560X40640R100
 10
30.9384
 20
20.0625
 30
0.0000
 41
1.0000
 42
1.0000
 43
1.0000
 50
180.0000
  0
INSERT
  8
31
  2
RECT162560X40640R100
 10
30.9384
 20
19.5579
 30
0.0000
 41
1.0000
 42
1.0000
 43
1.0000
 50
180.0000
  0
INSERT
  8
31
  2
RECT162560X40640R100
 10
30.9384
 20
19.0533
 30
0.0000
 41
1.0000
 42
1.0000
 43
1.0000
 50
180.0000
  0
INSERT
  8
31
  2
RECT
 10
18.4125
 20
31.7801
 30
0.0000
 41
0.5500
 42
1.2000
 43
1.0000
 50
180.0000
  0
INSERT
  8
31
  2
RECT
 10
17.4625
 20
31.7801
 30
0.0000
 41
0.5500
 42
1.2000
 43
1.0000
 50
180.0000
  0
INSERT
  8
31
  2
RECT
 10
16.5125
 20
31.7801
 30
0.0000
 41
0.5500
 42
1.2000
 43
1.0000
 50
180.0000
  0
INSERT
  8
31
  2
RECT
 10
16.5125
 20
29.1799
 30
0.0000
 41
0.5500
 42
1.2000
 43
1.0000
 50
180.0000
  0
INSERT
  8
31
  2
RECT
 10
18.4125
 20
29.1799
 30
0.0000
 41
0.5500
 42
1.2000
 43
1.0000
 50
180.0000
  0
INSERT
  8
31
  2
RECT
 10
35.4505
 20
12.4594
 30
0.0000
 41
0.5500
 42
1.2000
 43
1.0000
 50
270.0000
  0
INSERT
  8
31
  2
RECT
 10
35.4505
 20
11.5094
 30
0.0000
 41
0.5500
 42
1.2000
 43
1.0000
 50
270.0000
  0
INSERT
  8
31
  2
RECT
 10
35.4505
 20
10.5594
 30
0.0000
 41
0.5500
 42
1.2000
 43
1.0000
 50
270.0000
  0
INSERT
  8
31
  2
RECT
 10
38.0507
 20
10.5594
 30
0.0000
 41
0.5500
 42
1.2000
 43
1.0000
 50
270.0000
  0
INSERT
  8
31
  2
RECT
 10
38.0507
 20
12.4594
 30
0.0000
 41
0.5500
 42
1.2000
 43
1.0000
 50
270.0000
  0
CIRCLE
  8
20
 10
8.8900
 20
25.0600
 30
0.0000
 40
0.4500
  0
CIRCLE
  8
20
 10
8.8900
 20
20.6600
 30
0.0000
 40
0.4500
  0
INSERT
  8
31
  2
RECT
 10
11.3900
 20
22.8600
 30
0.0000
 41
2.5000
 42
0.5000
 43
1.0000
 50
0.0000
  0
INSERT
  8
31
  2
RECT
 10
11.3900
 20
23.6600
 30
0.0000
 41
2.5000
 42
0.5000
 43
1.0000
 50
0.0000
  0
INSERT
  8
31
  2
RECT
 10
11.3900
 20
21.2600
 30
0.0000
 41
2.5000
 42
0.5000
 43
1.0000
 50
0.0000
  0
INSERT
  8
31
  2
RECT
 10
11.3900
 20
22.0600
 30
0.0000
 41
2.5000
 42
0.5000
 43
1.0000
 50
0.0000
  0
INSERT
  8
31
  2
RECT
 10
5.8900
 20
27.3600
 30
0.0000
 41
2.5000
 42
2.0000
 43
1.0000
 50
0.0000
  0
INSERT
  8
31
  2
RECT
 10
11.3900
 20
27.3600
 30
0.0000
 41
2.5000
 42
2.0000
 43
1.0000
 50
0.0000
  0
INSERT
  8
31
  2
RECT
 10
5.8900
 20
18.3600
 30
0.0000
 41
2.5000
 42
2.0000
 43
1.0000
 50
0.0000
  0
INSERT
  8
31
  2
RECT
 10
11.3900
 20
18.3600
 30
0.0000
 41
2.5000
 42
2.0000
 43
1.0000
 50
0.0000
  0
INSERT
  8
31
  2
RECT
 10
11.3900
 20
24.4600
 30
0.0000
 41
2.5000
 42
0.5000
 43
1.0000
 50
0.0000
  0
INSERT
  8
31
  2
RECT
 10
22.2800
 20
11.1531
 30
0.0000
 41
1.9000
 42
1.1000
 43
1.0000
 50
0.0000
  0
INSERT
  8
31
  2
RECT
 10
25.9800
 20
11.1531
 30
0.0000
 41
1.9000
 42
1.1000
 43
1.0000
 50
0.0000
  0
INSERT
  8
31
  2
RECT
 10
25.9800
 20
13.4531
 30
0.0000
 41
1.9000
 42
1.1000
 43
1.0000
 50
0.0000
  0
INSERT
  8
31
  2
RECT
 10
22.2800
 20
13.4531
 30
0.0000
 41
1.9000
 42
1.1000
 43
1.0000
 50
0.0000
  0
ENDSEC
  0
EOF
