G75*
%MOIN*%
%OFA0B0*%
%FSLAX25Y25*%
%IPPOS*%
%LPD*%
%AMOC8*
5,1,8,0,0,1.08239X$1,22.5*
%
%ADD10OC8,0.07400*%
%ADD11OC8,0.05200*%
%ADD12C,0.07400*%
%ADD13C,0.01200*%
%ADD14C,0.03962*%
%ADD15C,0.01600*%
%ADD16C,0.02400*%
%ADD17C,0.01000*%
D10*
X0038285Y0046600D03*
X0038285Y0056600D03*
X0048285Y0056600D03*
X0048285Y0046600D03*
X0058285Y0046600D03*
X0058285Y0056600D03*
D11*
X0182973Y0091600D03*
X0192973Y0091600D03*
D12*
X0168285Y0116600D03*
X0168285Y0126600D03*
X0168285Y0136600D03*
D13*
X0213285Y0001600D02*
X0018285Y0001600D01*
X0018285Y0196600D01*
X0213285Y0196600D01*
X0213285Y0001600D01*
X0018285Y0001600D01*
X0018285Y0002799D02*
X0213285Y0002799D01*
X0213285Y0003997D02*
X0018285Y0003997D01*
X0018285Y0005196D02*
X0025718Y0005196D01*
X0026913Y0004701D02*
X0024377Y0005751D01*
X0022436Y0007692D01*
X0021386Y0010228D01*
X0021386Y0012972D01*
X0022436Y0015508D01*
X0024377Y0017449D01*
X0026913Y0018499D01*
X0029657Y0018499D01*
X0032193Y0017449D01*
X0034134Y0015508D01*
X0035184Y0012972D01*
X0035184Y0010228D01*
X0034134Y0007692D01*
X0032193Y0005751D01*
X0029657Y0004701D01*
X0026913Y0004701D01*
X0023734Y0006394D02*
X0018285Y0006394D01*
X0018285Y0007593D02*
X0022536Y0007593D01*
X0021981Y0008791D02*
X0018285Y0008791D01*
X0018285Y0009990D02*
X0021485Y0009990D01*
X0021386Y0011188D02*
X0018285Y0011188D01*
X0018285Y0012387D02*
X0021386Y0012387D01*
X0021640Y0013585D02*
X0018285Y0013585D01*
X0018285Y0014784D02*
X0022136Y0014784D01*
X0022910Y0015982D02*
X0018285Y0015982D01*
X0018285Y0017181D02*
X0024109Y0017181D01*
X0026623Y0018379D02*
X0018285Y0018379D01*
X0018285Y0019578D02*
X0213285Y0019578D01*
X0213285Y0020776D02*
X0018285Y0020776D01*
X0018285Y0021975D02*
X0213285Y0021975D01*
X0213285Y0023173D02*
X0018285Y0023173D01*
X0018285Y0024372D02*
X0213285Y0024372D01*
X0213285Y0025570D02*
X0018285Y0025570D01*
X0018285Y0026769D02*
X0213285Y0026769D01*
X0213285Y0027967D02*
X0018285Y0027967D01*
X0018285Y0029166D02*
X0213285Y0029166D01*
X0213285Y0030364D02*
X0018285Y0030364D01*
X0018285Y0031563D02*
X0213285Y0031563D01*
X0213285Y0032761D02*
X0018285Y0032761D01*
X0018285Y0033960D02*
X0213285Y0033960D01*
X0213285Y0035158D02*
X0018285Y0035158D01*
X0018285Y0036357D02*
X0213285Y0036357D01*
X0213285Y0037555D02*
X0167008Y0037555D01*
X0166933Y0037480D02*
X0167201Y0037750D01*
X0167239Y0037843D01*
X0175187Y0047281D01*
X0175833Y0047281D01*
X0177075Y0047796D01*
X0178026Y0048747D01*
X0178541Y0049990D01*
X0178541Y0051335D01*
X0178026Y0052578D01*
X0177075Y0053529D01*
X0175833Y0054044D01*
X0174488Y0054044D01*
X0173245Y0053529D01*
X0172294Y0052578D01*
X0171779Y0051335D01*
X0171779Y0050686D01*
X0164039Y0041495D01*
X0137454Y0041375D01*
X0137916Y0042490D01*
X0137916Y0043835D01*
X0137401Y0045078D01*
X0136450Y0046029D01*
X0135208Y0046544D01*
X0133863Y0046544D01*
X0132620Y0046029D01*
X0131954Y0045362D01*
X0109300Y0045362D01*
X0091666Y0066027D01*
X0091666Y0067273D01*
X0091151Y0068515D01*
X0090200Y0069466D01*
X0088958Y0069981D01*
X0087613Y0069981D01*
X0086370Y0069466D01*
X0085419Y0068515D01*
X0084904Y0067273D01*
X0084904Y0065927D01*
X0085419Y0064685D01*
X0086370Y0063734D01*
X0087613Y0063219D01*
X0088278Y0063219D01*
X0106085Y0042351D01*
X0106085Y0042251D01*
X0106668Y0041668D01*
X0107036Y0041237D01*
X0097087Y0041192D01*
X0089645Y0048635D01*
X0088763Y0049000D01*
X0076085Y0049000D01*
X0076085Y0072157D01*
X0075659Y0073186D01*
X0074871Y0073974D01*
X0044523Y0104322D01*
X0044523Y0117118D01*
X0044589Y0117185D01*
X0045104Y0118427D01*
X0045104Y0119773D01*
X0044589Y0121015D01*
X0044210Y0121394D01*
X0044210Y0143565D01*
X0049445Y0148800D01*
X0116304Y0148800D01*
X0116370Y0148734D01*
X0117613Y0148219D01*
X0118958Y0148219D01*
X0120200Y0148734D01*
X0121151Y0149685D01*
X0121666Y0150927D01*
X0121666Y0152273D01*
X0121151Y0153515D01*
X0120200Y0154466D01*
X0118958Y0154981D01*
X0117613Y0154981D01*
X0116370Y0154466D01*
X0116304Y0154400D01*
X0047728Y0154400D01*
X0046699Y0153974D01*
X0039824Y0147099D01*
X0039036Y0146311D01*
X0038610Y0145282D01*
X0038610Y0120421D01*
X0038342Y0119773D01*
X0038342Y0118427D01*
X0038856Y0117185D01*
X0038923Y0117118D01*
X0038923Y0102606D01*
X0039349Y0101576D01*
X0070485Y0070440D01*
X0070485Y0048582D01*
X0070419Y0048515D01*
X0069904Y0047273D01*
X0069904Y0045927D01*
X0070419Y0044685D01*
X0071370Y0043734D01*
X0072613Y0043219D01*
X0073958Y0043219D01*
X0075200Y0043734D01*
X0075667Y0044200D01*
X0087291Y0044200D01*
X0094067Y0037424D01*
X0094069Y0037419D01*
X0094405Y0037086D01*
X0094738Y0036753D01*
X0094743Y0036751D01*
X0094747Y0036747D01*
X0095185Y0036568D01*
X0095620Y0036388D01*
X0095626Y0036388D01*
X0095631Y0036385D01*
X0096104Y0036388D01*
X0096575Y0036388D01*
X0096580Y0036390D01*
X0164794Y0036698D01*
X0164889Y0036668D01*
X0165268Y0036700D01*
X0165648Y0036702D01*
X0165741Y0036741D01*
X0165841Y0036750D01*
X0166178Y0036924D01*
X0166529Y0037072D01*
X0166599Y0037143D01*
X0166688Y0037189D01*
X0166933Y0037480D01*
X0168006Y0038754D02*
X0213285Y0038754D01*
X0213285Y0039952D02*
X0169016Y0039952D01*
X0170025Y0041151D02*
X0213285Y0041151D01*
X0213285Y0042349D02*
X0171034Y0042349D01*
X0172043Y0043548D02*
X0213285Y0043548D01*
X0213285Y0044746D02*
X0173053Y0044746D01*
X0174062Y0045945D02*
X0213285Y0045945D01*
X0213285Y0047143D02*
X0175071Y0047143D01*
X0177621Y0048342D02*
X0213285Y0048342D01*
X0213285Y0049540D02*
X0178355Y0049540D01*
X0178541Y0050739D02*
X0213285Y0050739D01*
X0213285Y0051937D02*
X0178292Y0051937D01*
X0177468Y0053136D02*
X0213285Y0053136D01*
X0213285Y0054334D02*
X0101644Y0054334D01*
X0102667Y0053136D02*
X0172852Y0053136D01*
X0172029Y0051937D02*
X0103689Y0051937D01*
X0104712Y0050739D02*
X0171779Y0050739D01*
X0170814Y0049540D02*
X0105735Y0049540D01*
X0106757Y0048342D02*
X0169805Y0048342D01*
X0168796Y0047143D02*
X0107780Y0047143D01*
X0108803Y0045945D02*
X0132536Y0045945D01*
X0134535Y0043162D02*
X0108285Y0043162D01*
X0088285Y0066600D01*
X0091666Y0066320D02*
X0118373Y0066320D01*
X0118373Y0067518D02*
X0091564Y0067518D01*
X0090950Y0068717D02*
X0118373Y0068717D01*
X0118373Y0069915D02*
X0089117Y0069915D01*
X0087453Y0069915D02*
X0076085Y0069915D01*
X0076085Y0068717D02*
X0085620Y0068717D01*
X0085006Y0067518D02*
X0076085Y0067518D01*
X0076085Y0066320D02*
X0084904Y0066320D01*
X0085238Y0065121D02*
X0076085Y0065121D01*
X0076085Y0063923D02*
X0086181Y0063923D01*
X0088700Y0062724D02*
X0076085Y0062724D01*
X0076085Y0061526D02*
X0089723Y0061526D01*
X0090746Y0060327D02*
X0076085Y0060327D01*
X0076085Y0059129D02*
X0091769Y0059129D01*
X0092791Y0057930D02*
X0076085Y0057930D01*
X0076085Y0056732D02*
X0093814Y0056732D01*
X0094837Y0055533D02*
X0076085Y0055533D01*
X0076085Y0054334D02*
X0095860Y0054334D01*
X0096882Y0053136D02*
X0076085Y0053136D01*
X0076085Y0051937D02*
X0097905Y0051937D01*
X0098928Y0050739D02*
X0076085Y0050739D01*
X0076085Y0049540D02*
X0099950Y0049540D01*
X0100973Y0048342D02*
X0089937Y0048342D01*
X0091136Y0047143D02*
X0101996Y0047143D01*
X0103019Y0045945D02*
X0092334Y0045945D01*
X0093533Y0044746D02*
X0104041Y0044746D01*
X0105064Y0043548D02*
X0094731Y0043548D01*
X0095930Y0042349D02*
X0106085Y0042349D01*
X0093936Y0037555D02*
X0018285Y0037555D01*
X0018285Y0038754D02*
X0092737Y0038754D01*
X0091539Y0039952D02*
X0018285Y0039952D01*
X0018285Y0041151D02*
X0090340Y0041151D01*
X0089142Y0042349D02*
X0061530Y0042349D01*
X0060480Y0041300D02*
X0063585Y0044405D01*
X0063585Y0048795D01*
X0060780Y0051600D01*
X0063585Y0054405D01*
X0063585Y0058795D01*
X0060480Y0061900D01*
X0056090Y0061900D01*
X0053285Y0059095D01*
X0050480Y0061900D01*
X0046090Y0061900D01*
X0043285Y0059095D01*
X0040480Y0061900D01*
X0036090Y0061900D01*
X0032985Y0058795D01*
X0032985Y0054405D01*
X0035790Y0051600D01*
X0032985Y0048795D01*
X0032985Y0047000D01*
X0037885Y0047000D01*
X0037885Y0046200D01*
X0032985Y0046200D01*
X0032985Y0044405D01*
X0036090Y0041300D01*
X0037885Y0041300D01*
X0037885Y0046200D01*
X0038685Y0046200D01*
X0038685Y0041300D01*
X0040480Y0041300D01*
X0043285Y0044105D01*
X0046090Y0041300D01*
X0050480Y0041300D01*
X0053285Y0044105D01*
X0056090Y0041300D01*
X0060480Y0041300D01*
X0062728Y0043548D02*
X0071818Y0043548D01*
X0070393Y0044746D02*
X0063585Y0044746D01*
X0063585Y0045945D02*
X0069904Y0045945D01*
X0069904Y0047143D02*
X0063585Y0047143D01*
X0063585Y0048342D02*
X0070347Y0048342D01*
X0070485Y0049540D02*
X0062840Y0049540D01*
X0061641Y0050739D02*
X0070485Y0050739D01*
X0070485Y0051937D02*
X0061118Y0051937D01*
X0062316Y0053136D02*
X0070485Y0053136D01*
X0070485Y0054334D02*
X0063515Y0054334D01*
X0063585Y0055533D02*
X0070485Y0055533D01*
X0070485Y0056732D02*
X0063585Y0056732D01*
X0063585Y0057930D02*
X0070485Y0057930D01*
X0070485Y0059129D02*
X0063252Y0059129D01*
X0062053Y0060327D02*
X0070485Y0060327D01*
X0070485Y0061526D02*
X0060855Y0061526D01*
X0055715Y0061526D02*
X0050855Y0061526D01*
X0052053Y0060327D02*
X0054517Y0060327D01*
X0053318Y0059129D02*
X0053252Y0059129D01*
X0045715Y0061526D02*
X0040855Y0061526D01*
X0042053Y0060327D02*
X0044517Y0060327D01*
X0043318Y0059129D02*
X0043252Y0059129D01*
X0035715Y0061526D02*
X0018285Y0061526D01*
X0018285Y0062724D02*
X0070485Y0062724D01*
X0070485Y0063923D02*
X0018285Y0063923D01*
X0018285Y0065121D02*
X0070485Y0065121D01*
X0070485Y0066320D02*
X0018285Y0066320D01*
X0018285Y0067518D02*
X0070485Y0067518D01*
X0070485Y0068717D02*
X0018285Y0068717D01*
X0018285Y0069915D02*
X0070485Y0069915D01*
X0069812Y0071114D02*
X0018285Y0071114D01*
X0018285Y0072312D02*
X0068613Y0072312D01*
X0067415Y0073511D02*
X0018285Y0073511D01*
X0018285Y0074709D02*
X0066216Y0074709D01*
X0065018Y0075908D02*
X0018285Y0075908D01*
X0018285Y0077106D02*
X0063819Y0077106D01*
X0062621Y0078305D02*
X0018285Y0078305D01*
X0018285Y0079503D02*
X0061422Y0079503D01*
X0060224Y0080702D02*
X0054402Y0080702D01*
X0054267Y0080567D02*
X0055657Y0081956D01*
X0055657Y0083921D01*
X0054267Y0085310D01*
X0052303Y0085310D01*
X0050913Y0083921D01*
X0050913Y0081956D01*
X0052303Y0080567D01*
X0054267Y0080567D01*
X0055601Y0081900D02*
X0059025Y0081900D01*
X0057827Y0083099D02*
X0055657Y0083099D01*
X0055280Y0084297D02*
X0056628Y0084297D01*
X0055430Y0085496D02*
X0018285Y0085496D01*
X0018285Y0086694D02*
X0054231Y0086694D01*
X0053033Y0087893D02*
X0018285Y0087893D01*
X0018285Y0089091D02*
X0051834Y0089091D01*
X0050635Y0090290D02*
X0018285Y0090290D01*
X0018285Y0091488D02*
X0049437Y0091488D01*
X0048238Y0092687D02*
X0018285Y0092687D01*
X0018285Y0093885D02*
X0047040Y0093885D01*
X0045841Y0095084D02*
X0018285Y0095084D01*
X0018285Y0096282D02*
X0044643Y0096282D01*
X0043444Y0097481D02*
X0018285Y0097481D01*
X0018285Y0098679D02*
X0042246Y0098679D01*
X0041047Y0099878D02*
X0018285Y0099878D01*
X0018285Y0101076D02*
X0039849Y0101076D01*
X0039060Y0102275D02*
X0018285Y0102275D01*
X0018285Y0103473D02*
X0038923Y0103473D01*
X0038923Y0104672D02*
X0018285Y0104672D01*
X0018285Y0105870D02*
X0038923Y0105870D01*
X0038923Y0107069D02*
X0018285Y0107069D01*
X0018285Y0108268D02*
X0038923Y0108268D01*
X0038923Y0109466D02*
X0018285Y0109466D01*
X0018285Y0110665D02*
X0038923Y0110665D01*
X0038923Y0111863D02*
X0018285Y0111863D01*
X0018285Y0113062D02*
X0038923Y0113062D01*
X0038923Y0114260D02*
X0018285Y0114260D01*
X0018285Y0115459D02*
X0038923Y0115459D01*
X0038923Y0116657D02*
X0018285Y0116657D01*
X0018285Y0117856D02*
X0038578Y0117856D01*
X0038342Y0119054D02*
X0018285Y0119054D01*
X0018285Y0120253D02*
X0038540Y0120253D01*
X0038610Y0121451D02*
X0018285Y0121451D01*
X0018285Y0122650D02*
X0038610Y0122650D01*
X0038610Y0123848D02*
X0018285Y0123848D01*
X0018285Y0125047D02*
X0038610Y0125047D01*
X0038610Y0126245D02*
X0018285Y0126245D01*
X0018285Y0127444D02*
X0038610Y0127444D01*
X0038610Y0128642D02*
X0018285Y0128642D01*
X0018285Y0129841D02*
X0038610Y0129841D01*
X0038610Y0131039D02*
X0018285Y0131039D01*
X0018285Y0132238D02*
X0038610Y0132238D01*
X0038610Y0133436D02*
X0018285Y0133436D01*
X0018285Y0134635D02*
X0038610Y0134635D01*
X0038610Y0135833D02*
X0018285Y0135833D01*
X0018285Y0137032D02*
X0038610Y0137032D01*
X0038610Y0138230D02*
X0018285Y0138230D01*
X0018285Y0139429D02*
X0038610Y0139429D01*
X0038610Y0140627D02*
X0018285Y0140627D01*
X0018285Y0141826D02*
X0038610Y0141826D01*
X0038610Y0143024D02*
X0018285Y0143024D01*
X0018285Y0144223D02*
X0038610Y0144223D01*
X0038668Y0145421D02*
X0018285Y0145421D01*
X0018285Y0146620D02*
X0039345Y0146620D01*
X0039824Y0147099D02*
X0039824Y0147099D01*
X0040544Y0147818D02*
X0018285Y0147818D01*
X0018285Y0149017D02*
X0041742Y0149017D01*
X0042941Y0150215D02*
X0018285Y0150215D01*
X0018285Y0151414D02*
X0044139Y0151414D01*
X0045338Y0152612D02*
X0018285Y0152612D01*
X0018285Y0153811D02*
X0046536Y0153811D01*
X0048463Y0147818D02*
X0213285Y0147818D01*
X0213285Y0146620D02*
X0047265Y0146620D01*
X0046066Y0145421D02*
X0213285Y0145421D01*
X0213285Y0144223D02*
X0044868Y0144223D01*
X0044210Y0143024D02*
X0213285Y0143024D01*
X0213285Y0141826D02*
X0169171Y0141826D01*
X0169526Y0141769D02*
X0168702Y0141900D01*
X0168685Y0141900D01*
X0168685Y0137000D01*
X0167885Y0137000D01*
X0167885Y0136200D01*
X0162985Y0136200D01*
X0162985Y0136183D01*
X0163116Y0135359D01*
X0163373Y0134566D01*
X0163752Y0133822D01*
X0164243Y0133147D01*
X0164832Y0132557D01*
X0165507Y0132067D01*
X0166251Y0131688D01*
X0166514Y0131603D01*
X0165283Y0131093D01*
X0163792Y0129602D01*
X0162985Y0127654D01*
X0162985Y0125546D01*
X0163792Y0123598D01*
X0165283Y0122107D01*
X0166507Y0121600D01*
X0165283Y0121093D01*
X0163792Y0119602D01*
X0162985Y0117654D01*
X0162985Y0115546D01*
X0163792Y0113598D01*
X0165283Y0112107D01*
X0167231Y0111300D01*
X0169339Y0111300D01*
X0171287Y0112107D01*
X0172778Y0113598D01*
X0173585Y0115546D01*
X0173585Y0117654D01*
X0172778Y0119602D01*
X0171287Y0121093D01*
X0170064Y0121600D01*
X0171287Y0122107D01*
X0172778Y0123598D01*
X0173585Y0125546D01*
X0173585Y0127654D01*
X0172778Y0129602D01*
X0171287Y0131093D01*
X0170057Y0131603D01*
X0170320Y0131688D01*
X0171063Y0132067D01*
X0171738Y0132557D01*
X0172328Y0133147D01*
X0172818Y0133822D01*
X0173197Y0134566D01*
X0173455Y0135359D01*
X0173585Y0136183D01*
X0173585Y0136200D01*
X0168685Y0136200D01*
X0168685Y0137000D01*
X0173585Y0137000D01*
X0173585Y0137017D01*
X0173455Y0137841D01*
X0173197Y0138634D01*
X0172818Y0139378D01*
X0172328Y0140053D01*
X0171738Y0140643D01*
X0171063Y0141133D01*
X0170320Y0141512D01*
X0169526Y0141769D01*
X0168685Y0141826D02*
X0167885Y0141826D01*
X0167885Y0141900D02*
X0167868Y0141900D01*
X0167044Y0141769D01*
X0166251Y0141512D01*
X0165507Y0141133D01*
X0164832Y0140643D01*
X0164243Y0140053D01*
X0163752Y0139378D01*
X0163373Y0138634D01*
X0163116Y0137841D01*
X0162985Y0137017D01*
X0162985Y0137000D01*
X0167885Y0137000D01*
X0167885Y0141900D01*
X0167400Y0141826D02*
X0044210Y0141826D01*
X0044210Y0140627D02*
X0164817Y0140627D01*
X0163789Y0139429D02*
X0044210Y0139429D01*
X0044210Y0138230D02*
X0163242Y0138230D01*
X0162987Y0137032D02*
X0044210Y0137032D01*
X0044210Y0135833D02*
X0163040Y0135833D01*
X0163351Y0134635D02*
X0044210Y0134635D01*
X0044210Y0133436D02*
X0164033Y0133436D01*
X0165272Y0132238D02*
X0044210Y0132238D01*
X0044210Y0131039D02*
X0165229Y0131039D01*
X0164031Y0129841D02*
X0044210Y0129841D01*
X0044210Y0128642D02*
X0163394Y0128642D01*
X0162985Y0127444D02*
X0044210Y0127444D01*
X0044210Y0126245D02*
X0162985Y0126245D01*
X0163192Y0125047D02*
X0044210Y0125047D01*
X0044210Y0123848D02*
X0163688Y0123848D01*
X0164740Y0122650D02*
X0044210Y0122650D01*
X0044210Y0121451D02*
X0166147Y0121451D01*
X0164442Y0120253D02*
X0044905Y0120253D01*
X0045104Y0119054D02*
X0163565Y0119054D01*
X0163069Y0117856D02*
X0044867Y0117856D01*
X0044523Y0116657D02*
X0162985Y0116657D01*
X0163021Y0115459D02*
X0044523Y0115459D01*
X0044523Y0114260D02*
X0163518Y0114260D01*
X0164328Y0113062D02*
X0044523Y0113062D01*
X0044523Y0111863D02*
X0165872Y0111863D01*
X0170699Y0111863D02*
X0213285Y0111863D01*
X0213285Y0110665D02*
X0044523Y0110665D01*
X0044523Y0109466D02*
X0213285Y0109466D01*
X0213285Y0108268D02*
X0044523Y0108268D01*
X0044523Y0107069D02*
X0213285Y0107069D01*
X0213285Y0105870D02*
X0044523Y0105870D01*
X0044523Y0104672D02*
X0142201Y0104672D01*
X0141854Y0104325D02*
X0139443Y0104325D01*
X0138807Y0104460D01*
X0138600Y0104325D01*
X0138353Y0104325D01*
X0137893Y0103866D01*
X0119850Y0092137D01*
X0119603Y0092137D01*
X0119143Y0091678D01*
X0118599Y0091324D01*
X0118548Y0091082D01*
X0118373Y0090907D01*
X0118373Y0090258D01*
X0118238Y0089622D01*
X0118373Y0089415D01*
X0118373Y0062807D01*
X0118224Y0062560D01*
X0118373Y0061966D01*
X0118373Y0061355D01*
X0118576Y0061151D01*
X0118646Y0060872D01*
X0119171Y0060557D01*
X0119603Y0060125D01*
X0119891Y0060125D01*
X0120217Y0059930D01*
X0120217Y0059677D01*
X0120731Y0058435D01*
X0121682Y0057484D01*
X0122925Y0056969D01*
X0124270Y0056969D01*
X0125513Y0057484D01*
X0126464Y0058435D01*
X0126979Y0059677D01*
X0126979Y0061023D01*
X0126464Y0062265D01*
X0125513Y0063216D01*
X0124919Y0063462D01*
X0127266Y0063462D01*
X0127932Y0062796D01*
X0129175Y0062281D01*
X0130520Y0062281D01*
X0131763Y0062796D01*
X0132714Y0063747D01*
X0133229Y0064990D01*
X0133229Y0066335D01*
X0132714Y0067578D01*
X0131763Y0068529D01*
X0130520Y0069044D01*
X0129175Y0069044D01*
X0127932Y0068529D01*
X0127266Y0067862D01*
X0126735Y0067862D01*
X0126735Y0076375D01*
X0129979Y0076375D01*
X0130745Y0075609D01*
X0131988Y0075094D01*
X0133333Y0075094D01*
X0134575Y0075609D01*
X0135526Y0076560D01*
X0136041Y0077802D01*
X0136041Y0079148D01*
X0135526Y0080390D01*
X0134575Y0081341D01*
X0133768Y0081676D01*
X0133992Y0081900D01*
X0161696Y0081900D01*
X0168015Y0088219D01*
X0168958Y0088219D01*
X0170200Y0088734D01*
X0171151Y0089685D01*
X0171666Y0090927D01*
X0171666Y0092273D01*
X0171151Y0093515D01*
X0170200Y0094466D01*
X0168958Y0094981D01*
X0167613Y0094981D01*
X0166370Y0094466D01*
X0165419Y0093515D01*
X0164904Y0092273D01*
X0164904Y0091330D01*
X0159874Y0086300D01*
X0133992Y0086300D01*
X0133325Y0086966D01*
X0132083Y0087481D01*
X0130738Y0087481D01*
X0129495Y0086966D01*
X0128544Y0086015D01*
X0128029Y0084773D01*
X0128029Y0083427D01*
X0128544Y0082185D01*
X0129495Y0081234D01*
X0130303Y0080899D01*
X0129979Y0080575D01*
X0125546Y0080575D01*
X0125446Y0080675D01*
X0123624Y0080675D01*
X0122573Y0079624D01*
X0122573Y0088898D01*
X0139845Y0100125D01*
X0141854Y0100125D01*
X0142620Y0099359D01*
X0143863Y0098844D01*
X0145208Y0098844D01*
X0146450Y0099359D01*
X0147401Y0100310D01*
X0147916Y0101552D01*
X0147916Y0102898D01*
X0147401Y0104140D01*
X0146450Y0105091D01*
X0145208Y0105606D01*
X0143863Y0105606D01*
X0142620Y0105091D01*
X0141854Y0104325D01*
X0142101Y0099878D02*
X0139465Y0099878D01*
X0137621Y0098679D02*
X0213285Y0098679D01*
X0213285Y0097481D02*
X0135777Y0097481D01*
X0133933Y0096282D02*
X0213285Y0096282D01*
X0213285Y0095084D02*
X0195428Y0095084D01*
X0194712Y0095800D02*
X0191233Y0095800D01*
X0188773Y0093340D01*
X0188773Y0089860D01*
X0191233Y0087400D01*
X0194712Y0087400D01*
X0197173Y0089860D01*
X0197173Y0093340D01*
X0194712Y0095800D01*
X0196627Y0093885D02*
X0213285Y0093885D01*
X0213285Y0092687D02*
X0197173Y0092687D01*
X0197173Y0091488D02*
X0213285Y0091488D01*
X0213285Y0090290D02*
X0197173Y0090290D01*
X0196404Y0089091D02*
X0213285Y0089091D01*
X0213285Y0087893D02*
X0195205Y0087893D01*
X0190740Y0087893D02*
X0185205Y0087893D01*
X0184712Y0087400D02*
X0187173Y0089860D01*
X0187173Y0093340D01*
X0184712Y0095800D01*
X0181233Y0095800D01*
X0178773Y0093340D01*
X0178773Y0089860D01*
X0181233Y0087400D01*
X0184712Y0087400D01*
X0186404Y0089091D02*
X0189542Y0089091D01*
X0188773Y0090290D02*
X0187173Y0090290D01*
X0187173Y0091488D02*
X0188773Y0091488D01*
X0188773Y0092687D02*
X0187173Y0092687D01*
X0186627Y0093885D02*
X0189318Y0093885D01*
X0190517Y0095084D02*
X0185428Y0095084D01*
X0180517Y0095084D02*
X0132090Y0095084D01*
X0130246Y0093885D02*
X0165789Y0093885D01*
X0165076Y0092687D02*
X0128402Y0092687D01*
X0126558Y0091488D02*
X0164904Y0091488D01*
X0163864Y0090290D02*
X0124714Y0090290D01*
X0122870Y0089091D02*
X0162665Y0089091D01*
X0161467Y0087893D02*
X0122573Y0087893D01*
X0122573Y0086694D02*
X0129223Y0086694D01*
X0128329Y0085496D02*
X0122573Y0085496D01*
X0122573Y0084297D02*
X0128029Y0084297D01*
X0128165Y0083099D02*
X0122573Y0083099D01*
X0122573Y0081900D02*
X0128828Y0081900D01*
X0130105Y0080702D02*
X0122573Y0080702D01*
X0124535Y0078475D02*
X0124535Y0065975D01*
X0124848Y0065663D01*
X0129848Y0065663D01*
X0131310Y0068717D02*
X0213285Y0068717D01*
X0213285Y0069915D02*
X0126735Y0069915D01*
X0126735Y0068717D02*
X0128386Y0068717D01*
X0126735Y0071114D02*
X0213285Y0071114D01*
X0213285Y0072312D02*
X0126735Y0072312D01*
X0126735Y0073511D02*
X0213285Y0073511D01*
X0213285Y0074709D02*
X0126735Y0074709D01*
X0126735Y0075908D02*
X0130446Y0075908D01*
X0134874Y0075908D02*
X0213285Y0075908D01*
X0213285Y0077106D02*
X0135753Y0077106D01*
X0136041Y0078305D02*
X0213285Y0078305D01*
X0213285Y0079503D02*
X0135894Y0079503D01*
X0135215Y0080702D02*
X0213285Y0080702D01*
X0213285Y0081900D02*
X0161697Y0081900D01*
X0162895Y0083099D02*
X0213285Y0083099D01*
X0213285Y0084297D02*
X0164094Y0084297D01*
X0165292Y0085496D02*
X0213285Y0085496D01*
X0213285Y0086694D02*
X0166491Y0086694D01*
X0167689Y0087893D02*
X0180740Y0087893D01*
X0179542Y0089091D02*
X0170558Y0089091D01*
X0171402Y0090290D02*
X0178773Y0090290D01*
X0178773Y0091488D02*
X0171666Y0091488D01*
X0171495Y0092687D02*
X0178773Y0092687D01*
X0179318Y0093885D02*
X0170781Y0093885D01*
X0168285Y0091600D02*
X0160785Y0084100D01*
X0131410Y0084100D01*
X0133597Y0086694D02*
X0160268Y0086694D01*
X0146970Y0099878D02*
X0213285Y0099878D01*
X0213285Y0101076D02*
X0147719Y0101076D01*
X0147916Y0102275D02*
X0213285Y0102275D01*
X0213285Y0103473D02*
X0147678Y0103473D01*
X0146870Y0104672D02*
X0213285Y0104672D01*
X0213285Y0113062D02*
X0172242Y0113062D01*
X0173053Y0114260D02*
X0213285Y0114260D01*
X0213285Y0115459D02*
X0173549Y0115459D01*
X0173585Y0116657D02*
X0213285Y0116657D01*
X0213285Y0117856D02*
X0173502Y0117856D01*
X0173005Y0119054D02*
X0213285Y0119054D01*
X0213285Y0120253D02*
X0172128Y0120253D01*
X0170423Y0121451D02*
X0213285Y0121451D01*
X0213285Y0122650D02*
X0171830Y0122650D01*
X0172882Y0123848D02*
X0213285Y0123848D01*
X0213285Y0125047D02*
X0173378Y0125047D01*
X0173585Y0126245D02*
X0213285Y0126245D01*
X0213285Y0127444D02*
X0173585Y0127444D01*
X0173176Y0128642D02*
X0213285Y0128642D01*
X0213285Y0129841D02*
X0172540Y0129841D01*
X0171341Y0131039D02*
X0213285Y0131039D01*
X0213285Y0132238D02*
X0171298Y0132238D01*
X0172538Y0133436D02*
X0213285Y0133436D01*
X0213285Y0134635D02*
X0173219Y0134635D01*
X0173530Y0135833D02*
X0213285Y0135833D01*
X0213285Y0137032D02*
X0173583Y0137032D01*
X0173328Y0138230D02*
X0213285Y0138230D01*
X0213285Y0139429D02*
X0172781Y0139429D01*
X0171753Y0140627D02*
X0213285Y0140627D01*
X0213285Y0149017D02*
X0120484Y0149017D01*
X0121371Y0150215D02*
X0213285Y0150215D01*
X0213285Y0151414D02*
X0121666Y0151414D01*
X0121525Y0152612D02*
X0213285Y0152612D01*
X0213285Y0153811D02*
X0120856Y0153811D01*
X0167885Y0140627D02*
X0168685Y0140627D01*
X0168685Y0139429D02*
X0167885Y0139429D01*
X0167885Y0138230D02*
X0168685Y0138230D01*
X0168685Y0137032D02*
X0167885Y0137032D01*
X0137290Y0103473D02*
X0045371Y0103473D01*
X0046570Y0102275D02*
X0051945Y0102275D01*
X0052303Y0102633D02*
X0050913Y0101244D01*
X0050913Y0099279D01*
X0052303Y0097890D01*
X0054267Y0097890D01*
X0055657Y0099279D01*
X0055657Y0101244D01*
X0054267Y0102633D01*
X0052303Y0102633D01*
X0050913Y0101076D02*
X0047768Y0101076D01*
X0048967Y0099878D02*
X0050913Y0099878D01*
X0051513Y0098679D02*
X0050165Y0098679D01*
X0051364Y0097481D02*
X0128071Y0097481D01*
X0129915Y0098679D02*
X0055057Y0098679D01*
X0055657Y0099878D02*
X0131758Y0099878D01*
X0133602Y0101076D02*
X0055657Y0101076D01*
X0054626Y0102275D02*
X0135446Y0102275D01*
X0126227Y0096282D02*
X0052563Y0096282D01*
X0053761Y0095084D02*
X0124383Y0095084D01*
X0122539Y0093885D02*
X0054960Y0093885D01*
X0056158Y0092687D02*
X0120695Y0092687D01*
X0118851Y0091488D02*
X0057357Y0091488D01*
X0058555Y0090290D02*
X0118373Y0090290D01*
X0118373Y0089091D02*
X0059754Y0089091D01*
X0060952Y0087893D02*
X0118373Y0087893D01*
X0118373Y0086694D02*
X0062151Y0086694D01*
X0063349Y0085496D02*
X0118373Y0085496D01*
X0118373Y0084297D02*
X0064548Y0084297D01*
X0065746Y0083099D02*
X0118373Y0083099D01*
X0118373Y0081900D02*
X0066945Y0081900D01*
X0068143Y0080702D02*
X0118373Y0080702D01*
X0118373Y0079503D02*
X0069342Y0079503D01*
X0070540Y0078305D02*
X0118373Y0078305D01*
X0118373Y0077106D02*
X0071739Y0077106D01*
X0072937Y0075908D02*
X0118373Y0075908D01*
X0118373Y0074709D02*
X0074136Y0074709D01*
X0075334Y0073511D02*
X0118373Y0073511D01*
X0118373Y0072312D02*
X0076021Y0072312D01*
X0076085Y0071114D02*
X0118373Y0071114D01*
X0118373Y0065121D02*
X0092439Y0065121D01*
X0093462Y0063923D02*
X0118373Y0063923D01*
X0118323Y0062724D02*
X0094485Y0062724D01*
X0095507Y0061526D02*
X0118373Y0061526D01*
X0119401Y0060327D02*
X0096530Y0060327D01*
X0097553Y0059129D02*
X0120444Y0059129D01*
X0121236Y0057930D02*
X0098576Y0057930D01*
X0099598Y0056732D02*
X0213285Y0056732D01*
X0213285Y0057930D02*
X0125959Y0057930D01*
X0126751Y0059129D02*
X0213285Y0059129D01*
X0213285Y0060327D02*
X0126979Y0060327D01*
X0126770Y0061526D02*
X0213285Y0061526D01*
X0213285Y0062724D02*
X0131589Y0062724D01*
X0132787Y0063923D02*
X0213285Y0063923D01*
X0213285Y0065121D02*
X0133229Y0065121D01*
X0133229Y0066320D02*
X0213285Y0066320D01*
X0213285Y0067518D02*
X0132739Y0067518D01*
X0128106Y0062724D02*
X0126005Y0062724D01*
X0136534Y0045945D02*
X0167787Y0045945D01*
X0166777Y0044746D02*
X0137539Y0044746D01*
X0137916Y0043548D02*
X0165768Y0043548D01*
X0164759Y0042349D02*
X0137858Y0042349D01*
X0100621Y0055533D02*
X0213285Y0055533D01*
X0213285Y0018379D02*
X0204947Y0018379D01*
X0204657Y0018499D02*
X0201913Y0018499D01*
X0199377Y0017449D01*
X0197436Y0015508D01*
X0196386Y0012972D01*
X0196386Y0010228D01*
X0197436Y0007692D01*
X0199377Y0005751D01*
X0201913Y0004701D01*
X0204657Y0004701D01*
X0207193Y0005751D01*
X0209134Y0007692D01*
X0210184Y0010228D01*
X0210184Y0012972D01*
X0209134Y0015508D01*
X0207193Y0017449D01*
X0204657Y0018499D01*
X0207461Y0017181D02*
X0213285Y0017181D01*
X0213285Y0015982D02*
X0208660Y0015982D01*
X0209434Y0014784D02*
X0213285Y0014784D01*
X0213285Y0013585D02*
X0209931Y0013585D01*
X0210184Y0012387D02*
X0213285Y0012387D01*
X0213285Y0011188D02*
X0210184Y0011188D01*
X0210086Y0009990D02*
X0213285Y0009990D01*
X0213285Y0008791D02*
X0209589Y0008791D01*
X0209035Y0007593D02*
X0213285Y0007593D01*
X0213285Y0006394D02*
X0207836Y0006394D01*
X0205852Y0005196D02*
X0213285Y0005196D01*
X0200718Y0005196D02*
X0030852Y0005196D01*
X0032836Y0006394D02*
X0198734Y0006394D01*
X0197536Y0007593D02*
X0034035Y0007593D01*
X0034589Y0008791D02*
X0196981Y0008791D01*
X0196485Y0009990D02*
X0035086Y0009990D01*
X0035184Y0011188D02*
X0196386Y0011188D01*
X0196386Y0012387D02*
X0035184Y0012387D01*
X0034931Y0013585D02*
X0196640Y0013585D01*
X0197136Y0014784D02*
X0034434Y0014784D01*
X0033660Y0015982D02*
X0197910Y0015982D01*
X0199109Y0017181D02*
X0032461Y0017181D01*
X0029947Y0018379D02*
X0201623Y0018379D01*
X0087943Y0043548D02*
X0074752Y0043548D01*
X0055040Y0042349D02*
X0051530Y0042349D01*
X0052728Y0043548D02*
X0053842Y0043548D01*
X0045040Y0042349D02*
X0041530Y0042349D01*
X0042728Y0043548D02*
X0043842Y0043548D01*
X0038685Y0043548D02*
X0037885Y0043548D01*
X0037885Y0044746D02*
X0038685Y0044746D01*
X0038685Y0045945D02*
X0037885Y0045945D01*
X0037885Y0042349D02*
X0038685Y0042349D01*
X0035040Y0042349D02*
X0018285Y0042349D01*
X0018285Y0043548D02*
X0033842Y0043548D01*
X0032985Y0044746D02*
X0018285Y0044746D01*
X0018285Y0045945D02*
X0032985Y0045945D01*
X0032985Y0047143D02*
X0018285Y0047143D01*
X0018285Y0048342D02*
X0032985Y0048342D01*
X0033730Y0049540D02*
X0018285Y0049540D01*
X0018285Y0050739D02*
X0034929Y0050739D01*
X0035452Y0051937D02*
X0018285Y0051937D01*
X0018285Y0053136D02*
X0034254Y0053136D01*
X0033055Y0054334D02*
X0018285Y0054334D01*
X0018285Y0055533D02*
X0032985Y0055533D01*
X0032985Y0056732D02*
X0018285Y0056732D01*
X0018285Y0057930D02*
X0032985Y0057930D01*
X0033318Y0059129D02*
X0018285Y0059129D01*
X0018285Y0060327D02*
X0034517Y0060327D01*
X0018285Y0080702D02*
X0052168Y0080702D01*
X0050969Y0081900D02*
X0018285Y0081900D01*
X0018285Y0083099D02*
X0050913Y0083099D01*
X0051290Y0084297D02*
X0018285Y0084297D01*
X0018285Y0155009D02*
X0213285Y0155009D01*
X0213285Y0156208D02*
X0018285Y0156208D01*
X0018285Y0157406D02*
X0213285Y0157406D01*
X0213285Y0158605D02*
X0018285Y0158605D01*
X0018285Y0159803D02*
X0213285Y0159803D01*
X0213285Y0161002D02*
X0018285Y0161002D01*
X0018285Y0162201D02*
X0213285Y0162201D01*
X0213285Y0163399D02*
X0018285Y0163399D01*
X0018285Y0164598D02*
X0213285Y0164598D01*
X0213285Y0165796D02*
X0018285Y0165796D01*
X0018285Y0166995D02*
X0213285Y0166995D01*
X0213285Y0168193D02*
X0018285Y0168193D01*
X0018285Y0169392D02*
X0213285Y0169392D01*
X0213285Y0170590D02*
X0018285Y0170590D01*
X0018285Y0171789D02*
X0213285Y0171789D01*
X0213285Y0172987D02*
X0018285Y0172987D01*
X0018285Y0174186D02*
X0213285Y0174186D01*
X0213285Y0175384D02*
X0018285Y0175384D01*
X0018285Y0176583D02*
X0213285Y0176583D01*
X0213285Y0177781D02*
X0018285Y0177781D01*
X0018285Y0178980D02*
X0213285Y0178980D01*
X0213285Y0180178D02*
X0205810Y0180178D01*
X0204657Y0179701D02*
X0207193Y0180751D01*
X0209134Y0182692D01*
X0210184Y0185228D01*
X0210184Y0187972D01*
X0209134Y0190508D01*
X0207193Y0192449D01*
X0204657Y0193499D01*
X0201913Y0193499D01*
X0199377Y0192449D01*
X0197436Y0190508D01*
X0196386Y0187972D01*
X0196386Y0185228D01*
X0197436Y0182692D01*
X0199377Y0180751D01*
X0201913Y0179701D01*
X0204657Y0179701D01*
X0207819Y0181377D02*
X0213285Y0181377D01*
X0213285Y0182575D02*
X0209017Y0182575D01*
X0209582Y0183774D02*
X0213285Y0183774D01*
X0213285Y0184972D02*
X0210079Y0184972D01*
X0210184Y0186171D02*
X0213285Y0186171D01*
X0213285Y0187369D02*
X0210184Y0187369D01*
X0209938Y0188568D02*
X0213285Y0188568D01*
X0213285Y0189766D02*
X0209441Y0189766D01*
X0208677Y0190965D02*
X0213285Y0190965D01*
X0213285Y0192163D02*
X0207479Y0192163D01*
X0204989Y0193362D02*
X0213285Y0193362D01*
X0213285Y0194560D02*
X0018285Y0194560D01*
X0018285Y0193362D02*
X0026581Y0193362D01*
X0026913Y0193499D02*
X0024377Y0192449D01*
X0022436Y0190508D01*
X0021386Y0187972D01*
X0021386Y0185228D01*
X0022436Y0182692D01*
X0024377Y0180751D01*
X0026913Y0179701D01*
X0029657Y0179701D01*
X0032193Y0180751D01*
X0034134Y0182692D01*
X0035184Y0185228D01*
X0035184Y0187972D01*
X0034134Y0190508D01*
X0032193Y0192449D01*
X0029657Y0193499D01*
X0026913Y0193499D01*
X0029989Y0193362D02*
X0201581Y0193362D01*
X0199091Y0192163D02*
X0032479Y0192163D01*
X0033677Y0190965D02*
X0197893Y0190965D01*
X0197129Y0189766D02*
X0034441Y0189766D01*
X0034938Y0188568D02*
X0196633Y0188568D01*
X0196386Y0187369D02*
X0035184Y0187369D01*
X0035184Y0186171D02*
X0196386Y0186171D01*
X0196492Y0184972D02*
X0035079Y0184972D01*
X0034582Y0183774D02*
X0196988Y0183774D01*
X0197553Y0182575D02*
X0034017Y0182575D01*
X0032819Y0181377D02*
X0198751Y0181377D01*
X0200760Y0180178D02*
X0030810Y0180178D01*
X0025760Y0180178D02*
X0018285Y0180178D01*
X0018285Y0181377D02*
X0023751Y0181377D01*
X0022553Y0182575D02*
X0018285Y0182575D01*
X0018285Y0183774D02*
X0021988Y0183774D01*
X0021492Y0184972D02*
X0018285Y0184972D01*
X0018285Y0186171D02*
X0021386Y0186171D01*
X0021386Y0187369D02*
X0018285Y0187369D01*
X0018285Y0188568D02*
X0021633Y0188568D01*
X0022129Y0189766D02*
X0018285Y0189766D01*
X0018285Y0190965D02*
X0022893Y0190965D01*
X0024091Y0192163D02*
X0018285Y0192163D01*
X0018285Y0195759D02*
X0213285Y0195759D01*
D14*
X0143285Y0116600D03*
X0144535Y0102225D03*
X0141410Y0096600D03*
X0131410Y0084100D03*
X0132660Y0078475D03*
X0130160Y0073163D03*
X0129848Y0065663D03*
X0123598Y0060350D03*
X0139223Y0068475D03*
X0134535Y0043162D03*
X0095785Y0047225D03*
X0088285Y0066600D03*
X0075785Y0078163D03*
X0090785Y0106287D03*
X0090160Y0134100D03*
X0118285Y0151600D03*
X0160473Y0107225D03*
X0168285Y0091600D03*
X0175160Y0050662D03*
X0183598Y0039100D03*
X0073285Y0046600D03*
X0041723Y0119100D03*
D15*
X0073285Y0046600D02*
X0088285Y0046600D01*
X0096098Y0038788D01*
X0165160Y0039100D01*
X0175160Y0050975D01*
X0175160Y0050662D01*
D16*
X0073285Y0046600D02*
X0073285Y0071600D01*
X0041723Y0103162D01*
X0041723Y0119100D01*
X0041410Y0119412D01*
X0041410Y0144725D01*
X0048285Y0151600D01*
X0118285Y0151600D01*
D17*
X0139223Y0102225D02*
X0120473Y0090037D01*
X0120473Y0062225D01*
X0123598Y0060350D01*
X0124535Y0078475D02*
X0132660Y0078475D01*
X0139223Y0102225D02*
X0144535Y0102225D01*
M02*
