%
M48
M72
T01C0.02362
T02C0.03200
T03C0.03543
T04C0.04000
T05C0.12598
%
T01
X73285Y46600
X95785Y47225
X88285Y66600
X75785Y78163
X90785Y106287
X90160Y134100
X118285Y151600
X143285Y116600
X144535Y102225
X141410Y96600
X131410Y84100
X132660Y78475
X130160Y73163
X129848Y65663
X123598Y60350
X139223Y68475
X134535Y43162
X175160Y50662
X183598Y39100
X168285Y91600
X160473Y107225
X41723Y119100
T02
X182973Y91600
X192973Y91600
T03
X53285Y82939
X53285Y100261
T04
X48285Y56600
X38285Y56600
X38285Y46600
X48285Y46600
X58285Y46600
X58285Y56600
X168285Y116600
X168285Y126600
X168285Y136600
T05
X28285Y11600
X203285Y11600
X203285Y186600
X28285Y186600
M30
